<?xml version="1.0"?>
<svg xmlns="http://www.w3.org/2000/svg" xmlns:xlink="http://www.w3.org/1999/xlink" xmlns:svgjs="http://svgjs.com/svgjs" version="1.1" width="512" height="512" x="0" y="0" viewBox="0 0 512 512" style="enable-background:new 0 0 512 512" xml:space="preserve" class=""><g>
<g xmlns="http://www.w3.org/2000/svg">
	<g>
		<path d="M458.667,85.333v21.333c17.673,0,32,14.327,32,32v256c0,17.673-14.327,32-32,32H53.333c-17.673,0-32-14.327-32-32v-256    c0-17.673,14.327-32,32-32V85.333C23.893,85.369,0.035,109.226,0,138.667v256C0.035,424.107,23.893,447.965,53.333,448h405.333    c29.441-0.035,53.298-23.893,53.333-53.333v-256C511.965,109.226,488.107,85.369,458.667,85.333z" fill="#212529" data-original="#000000" style="" class=""/>
	</g>
</g>
<g xmlns="http://www.w3.org/2000/svg">
	<g>
		<rect x="149.333" y="490.667" width="213.333" height="21.333" fill="#212529" data-original="#000000" style="" class=""/>
	</g>
</g>
<g xmlns="http://www.w3.org/2000/svg">
	<g>
		<rect x="181.333" y="437.333" width="21.333" height="64" fill="#212529" data-original="#000000" style="" class=""/>
	</g>
</g>
<g xmlns="http://www.w3.org/2000/svg">
	<g>
		<rect x="309.333" y="437.333" width="21.333" height="64" fill="#212529" data-original="#000000" style="" class=""/>
	</g>
</g>
<g xmlns="http://www.w3.org/2000/svg">
	<g>
		<path d="M405.333,0H106.667c-17.673,0-32,14.327-32,32v64c0,5.891,4.776,10.667,10.667,10.667h309.333V85.333H96V32    c0-5.891,4.776-10.667,10.667-10.667h298.667C411.224,21.333,416,26.109,416,32v298.667c0,5.891-4.776,10.667-10.667,10.667    H106.667c-5.891,0-10.667-4.776-10.667-10.667V128H74.667v202.667c0,17.673,14.327,32,32,32h298.667c17.673,0,32-14.327,32-32V32    C437.333,14.327,423.006,0,405.333,0z" fill="#212529" data-original="#000000" style="" class=""/>
	</g>
</g>
<g xmlns="http://www.w3.org/2000/svg">
	<g>
		<path d="M74.667,384C68.776,384,64,379.224,64,373.333V352H42.667v21.333c0,17.673,14.327,32,32,32H96V384H74.667z" fill="#212529" data-original="#000000" style="" class=""/>
	</g>
</g>
<g xmlns="http://www.w3.org/2000/svg">
	<g>
		<rect x="117.333" y="384" width="21.333" height="21.333" fill="#212529" data-original="#000000" style="" class=""/>
	</g>
</g>
<g xmlns="http://www.w3.org/2000/svg">
	<g>
		<rect x="117.333" y="42.667" width="21.333" height="21.333" fill="#212529" data-original="#000000" style="" class=""/>
	</g>
</g>
<g xmlns="http://www.w3.org/2000/svg">
	<g>
		<rect x="160" y="42.667" width="21.333" height="21.333" fill="#212529" data-original="#000000" style="" class=""/>
	</g>
</g>
<g xmlns="http://www.w3.org/2000/svg">
	<g>
		<rect x="202.667" y="42.667" width="21.333" height="21.333" fill="#212529" data-original="#000000" style="" class=""/>
	</g>
</g>
<g xmlns="http://www.w3.org/2000/svg">
	<g>
		<path d="M210.208,146.208l-15.083-15.083l-53.333,53.333c-4.164,4.165-4.164,10.917,0,15.083l53.333,53.333l15.083-15.083    L164.416,192L210.208,146.208z" fill="#212529" data-original="#000000" style="" class=""/>
	</g>
</g>
<g xmlns="http://www.w3.org/2000/svg">
	<g>
		<path d="M370.208,184.459l-53.333-53.333l-15.083,15.083L347.584,192l-45.792,45.792l15.083,15.083l53.333-53.333    C374.372,195.376,374.372,188.624,370.208,184.459z" fill="#212529" data-original="#000000" style="" class=""/>
	</g>
</g>
<g xmlns="http://www.w3.org/2000/svg">
	<g>
		
			<rect x="198.564" y="181.338" transform="matrix(0.3711 -0.9286 0.9286 0.3711 -17.2858 358.4876)" width="114.88" height="21.333" fill="#212529" data-original="#000000" style="" class=""/>
	</g>
</g>
<g xmlns="http://www.w3.org/2000/svg">
	<g>
		<rect x="128" y="298.667" width="256" height="21.333" fill="#212529" data-original="#000000" style="" class=""/>
	</g>
</g>
<g xmlns="http://www.w3.org/2000/svg">
</g>
<g xmlns="http://www.w3.org/2000/svg">
</g>
<g xmlns="http://www.w3.org/2000/svg">
</g>
<g xmlns="http://www.w3.org/2000/svg">
</g>
<g xmlns="http://www.w3.org/2000/svg">
</g>
<g xmlns="http://www.w3.org/2000/svg">
</g>
<g xmlns="http://www.w3.org/2000/svg">
</g>
<g xmlns="http://www.w3.org/2000/svg">
</g>
<g xmlns="http://www.w3.org/2000/svg">
</g>
<g xmlns="http://www.w3.org/2000/svg">
</g>
<g xmlns="http://www.w3.org/2000/svg">
</g>
<g xmlns="http://www.w3.org/2000/svg">
</g>
<g xmlns="http://www.w3.org/2000/svg">
</g>
<g xmlns="http://www.w3.org/2000/svg">
</g>
<g xmlns="http://www.w3.org/2000/svg">
</g>
</g></svg>
