<svg width="455" height="237" viewBox="0 0 455 237" fill="none" xmlns="http://www.w3.org/2000/svg">
<rect width="160.439" height="12.8351" transform="matrix(0.706399 -0.707814 0.706399 0.707814 232.488 222.58)" fill="black"/>
<circle r="6.41756" transform="matrix(0.706399 -0.707814 0.706399 0.707814 237.021 227.122)" fill="black"/>
<rect width="160.439" height="12.8351" transform="matrix(0.706399 0.707814 -0.706399 0.707814 241.555 4.54248)" fill="black"/>
<circle r="6.41756" transform="matrix(0.706399 0.707814 -0.706399 0.707814 237.021 9.08501)" fill="black"/>
<rect width="160.439" height="12.8351" transform="matrix(-0.706399 0.707814 -0.706399 -0.707814 222.773 13.9576)" fill="black"/>
<circle r="6.41756" transform="matrix(-0.706399 0.707814 -0.706399 -0.707814 218.24 9.41516)" fill="black"/>
<rect width="160.439" height="12.8351" transform="matrix(-0.706399 -0.707814 0.706399 -0.707814 213.706 231.995)" fill="black"/>
<circle r="6.41756" transform="matrix(-0.706399 -0.707814 0.706399 -0.707814 218.24 227.452)" fill="black"/>
<rect x="4.52066" y="111.679" width="113.017" height="12.848" fill="black"/>
<ellipse cx="4.52067" cy="118.103" rx="4.52067" ry="6.42398" fill="black"/>
<rect x="450.479" y="124.527" width="113.017" height="12.848" transform="rotate(-180 450.479 124.527)" fill="black"/>
<ellipse cx="450.479" cy="118.103" rx="4.52067" ry="6.42398" transform="rotate(-180 450.479 118.103)" fill="black"/>
<rect x="64.2894" y="43.1567" width="113.017" height="12.848" fill="black"/>
<ellipse cx="64.2894" cy="49.5807" rx="4.52067" ry="6.42398" fill="black"/>
<rect x="392.505" y="56.0048" width="113.017" height="12.848" transform="rotate(-180 392.505 56.0048)" fill="black"/>
<ellipse cx="392.505" cy="49.5808" rx="4.52067" ry="6.42398" transform="rotate(-180 392.505 49.5808)" fill="black"/>
<rect x="389.505" y="191.05" width="113.017" height="12.848" transform="rotate(-180 389.505 191.05)" fill="black"/>
<ellipse cx="389.505" cy="184.626" rx="4.52067" ry="6.42398" transform="rotate(-180 389.505 184.626)" fill="black"/>
<rect x="67.2894" y="180.202" width="113.017" height="12.848" fill="black"/>
<ellipse cx="67.2894" cy="186.626" rx="4.52067" ry="6.42398" fill="black"/>
<rect x="177.188" y="68.0004" width="104.696" height="11.902" fill="black"/>
<ellipse cx="177.188" cy="73.9514" rx="4.18783" ry="5.95101" fill="black"/>
<ellipse cx="282.112" cy="73.9514" rx="4.18783" ry="5.95101" fill="black"/>
<rect x="223.483" y="177.331" width="104.906" height="11.8782" transform="rotate(-90 223.483 177.331)" fill="black"/>
<ellipse cx="229.422" cy="177.331" rx="4.19623" ry="5.93911" transform="rotate(-90 229.422 177.331)" fill="black"/>
<ellipse cx="229.422" cy="72.1961" rx="4.19623" ry="5.93911" transform="rotate(-90 229.422 72.1961)" fill="black"/>
</svg>
