<svg id="_x33_0" enable-background="new 0 0 64 64" height="512" viewBox="0 0 64 64" width="512" xmlns="http://www.w3.org/2000/svg"><g><path d="m9 39h10v-10h-10zm2-4h2v2h-2zm4 2v-2h2v2zm2-4h-2v-2h2zm-4-2v2h-2v-2z"/><path d="m21 29v10h10v-10zm8 4h-2v-2h2zm-4-2v2h-2v-2zm-2 4h2v2h-2zm4 2v-2h2v2z"/><path d="m47 57v-10h-8v10zm-6-2v-2h4v2zm4-6v2h-4v-2z"/><path d="m57 47h-8v10h8zm-2 2v2h-4v-2zm-4 6v-2h4v2z"/><path d="m59 33.697v-10.697h1.333c1.471 0 2.667-1.196 2.667-2.667 0-.354-.069-.7-.206-1.025l-5.127-12.308h-6.892c-.226-.572-.61-1.075-1.152-1.415l-7.623-4.765-7.624 4.765c-.542.34-.925.843-1.151 1.415h-13.639l-17.878 17.878c-.45.449-.708 1.071-.708 1.708 0 1.331 1.083 2.414 2.414 2.414h1.586v12h-2v22h58v-20.057c1.142-.246 2-1.264 2-2.479 0-.502-.147-.988-.426-1.406zm-2-.697h-2v-8h-8v8h-2v-8h-6.608c-.034-.039-.062-.084-.099-.121l-1.879-1.879h20.586zm-4 0h-4v-6h4zm-18-4h1.586c.142 0 .279-.018.414-.042v4.042h-2zm4-2h4v6h-4zm-3.563-19.72 6.563-4.1 6.562 4.101c.274.171.438.466.438.788 0 .434-.297.799-.741.901l-6.259-4.172-6.27 4.181c-.417-.092-.73-.465-.73-.91 0-.322.164-.617.437-.789zm7.563 9.72h-2v-4h2zm-4-6v6h-2v-6.465l5-3.333 5 3.333v6.465h-2v-6zm-5.834-2c.29.853.96 1.525 1.834 1.824v8.176h14v-8.166c.864-.292 1.542-.97 1.834-1.834h5.499l4.616 11.078c.034.081.051.167.051.255 0 .368-.299.667-.667.667h-25.919l-12-12zm-30.166 17.586c0-.109.044-.216.121-.293l16.879-16.879 16.879 16.88c.077.076.121.183.121.292 0 .228-.186.414-.414.414h-2.172l-14.414-14.414-14.414 14.414h-2.172c-.228 0-.414-.186-.414-.414zm13.414-7.586h7.172l2 2h-11.172zm2-2 1.586-1.586 1.586 1.586zm-6 6h15.172l2 2h-19.172zm-5.414 5.414 1.414-1.414h23.172l1.414 1.414v12.586h-26zm-2 14.586h30v18h-2v-16h-26v16h-2zm18 18h-6v-2h6zm-8-4v4h-6v-6h22v6h-6v-4zm16-8h-22v-2h22zm-22 2h22v2h-22zm50 10h-22v-18h22zm1.465-20h-25.465v-6h22.465l3.445 5.168c.059.088.09.19.09.297 0 .295-.24.535-.535.535z"/></g></svg>