<?xml version="1.0"?>
<svg xmlns="http://www.w3.org/2000/svg" viewBox="0 0 64 64" width="512" height="512"><g id="meeting-online_meeting-smartphone-house-home" data-name="meeting-online meeting-smartphone-house-home"><path d="M59.18,25.17a2.923,2.923,0,0,0,.83-.12,2.963,2.963,0,0,0,1.85-1.54l.21-.41a3.022,3.022,0,0,0-1.14-3.91L33.54,2.76a2.988,2.988,0,0,0-3.08,0L3.07,19.19A3.022,3.022,0,0,0,1.93,23.1l.21.41a2.963,2.963,0,0,0,1.85,1.54A2.9,2.9,0,0,0,6,24.91V56H5a3,3,0,0,0,0,6H59a3,3,0,0,0,0-6H58V24.9A3.033,3.033,0,0,0,59.18,25.17ZM59,58a1,1,0,0,1,0,2H5a1,1,0,0,1,0-2ZM8,56V23.76L31.48,9.62a1.02,1.02,0,0,1,1.04,0L56,23.76V56ZM33.55,7.91a3.009,3.009,0,0,0-3.1,0L5.34,23.03a1.018,1.018,0,0,1-.8.1.972.972,0,0,1-.61-.51l-.21-.41A1.021,1.021,0,0,1,4.1,20.9L31.48,4.48a.98.98,0,0,1,1.03-.01L59.9,20.9a1.021,1.021,0,0,1,.38,1.31l-.21.41a.972.972,0,0,1-.61.51,1.023,1.023,0,0,1-.8-.1Z"/><path d="M53,26H11a1,1,0,0,0-1,1V53a1,1,0,0,0,1,1H53a1,1,0,0,0,1-1V27A1,1,0,0,0,53,26ZM52,52H12V28H52Z"/><path d="M36,14H28a1,1,0,0,0-1,1v8a1,1,0,0,0,1,1h8a1,1,0,0,0,1-1V15A1,1,0,0,0,36,14Zm-5,8H29V20h2Zm0-4H29V16h2Zm4,4H33V20h2Zm0-4H33V16h2Z"/><path d="M47,30H17a3.009,3.009,0,0,0-3,3V47a3.009,3.009,0,0,0,3,3H47a3.009,3.009,0,0,0,3-3V33A3.009,3.009,0,0,0,47,30ZM20,48H17a1,1,0,0,1-1-1V33a1,1,0,0,1,1-1h3Zm14,0H30V47a1,1,0,0,1,1-1h2a1,1,0,0,1,1,1Zm-3-5V42h2v1a1,1,0,0,1-2,0Zm-1-3a2,2,0,0,1,4,0Zm12,8H36V47a2.983,2.983,0,0,0-1.4-2.53A2.942,2.942,0,0,0,35,43V42a1,1,0,0,0,1-1V40a4,4,0,0,0-8,0v1a1,1,0,0,0,1,1v1a2.942,2.942,0,0,0,.4,1.47A2.983,2.983,0,0,0,28,47v1H22V32H42Zm6-1a1,1,0,0,1-1,1H44V32h3a1,1,0,0,1,1,1Z"/><rect x="24" y="34" width="4" height="2"/><rect x="36" y="34" width="4" height="2"/></g></svg>
